<svg width="24" height="24" viewBox="0 0 24 24" fill="none" xmlns="http://www.w3.org/2000/svg">
<path d="M16.103 8.95609C15.5084 6.2608 12.7452 5.83501 9.21025 6.09975V8.95609M16.103 8.95609C16.1812 9.3106 16.2218 9.70436 16.2218 10.141C16.2218 10.6711 16.1823 11.1413 16.1001 11.5572M16.103 8.95609H9.21025M16.103 8.95609H17.8447M9.21025 8.95609V11.5572M9.21025 8.95609H6.97438M9.21025 11.5572V14.401M9.21025 11.5572H6.97437M9.21025 11.5572H16.1001M9.21025 14.401V17.9679M9.21025 14.401C13.5257 14.6086 15.6004 14.088 16.1001 11.5572M16.1001 11.5572H17.8447M22 12C22 17.5228 17.5228 22 12 22C6.47715 22 2 17.5228 2 12C2 6.47715 6.47715 2 12 2C17.5228 2 22 6.47715 22 12Z" stroke="#1D1E20" stroke-width="2" stroke-linecap="round" stroke-linejoin="round"/>
</svg>
