<svg width="103" height="103" viewBox="0 0 103 103" fill="none" xmlns="http://www.w3.org/2000/svg">
<g opacity="0.5">
<path d="M83.61 85.6958H23.8118M83.61 85.6958C95.0384 64.092 95.0384 41.2948 83.61 17.3039M83.61 85.6958L87.9068 98.4968H19.515L23.8118 85.6958M23.8118 85.6958C12.4132 64.1219 12.4132 41.3246 23.8118 17.3039M23.8118 17.3039H83.61M23.8118 17.3039L19.515 4.50281H87.9068L83.61 17.3039M55.2775 69.4034C54.2816 70.5339 53.0555 71.4383 51.6814 72.0559C50.3072 72.6735 48.8169 72.99 47.3104 72.9842C45.3918 72.9891 43.5073 72.4779 41.8542 71.5043C40.201 70.5306 38.8402 69.1303 37.9142 67.45C36.9882 65.7697 36.5311 63.8714 36.5908 61.9537C36.6506 60.0361 37.2249 58.1699 38.2537 56.5505C39.2825 54.9311 40.7278 53.6182 42.4383 52.7493C44.1489 51.8804 46.0616 51.4876 47.9761 51.6118C49.8906 51.7361 51.7364 52.373 53.3203 53.4558C54.9041 54.5385 56.1675 56.0273 56.9783 57.7661M36.6129 34.4019H70.8089M70.8089 64.3009C70.8089 69.0224 66.9814 72.8499 62.2599 72.8499C57.5384 72.8499 53.7109 69.0224 53.7109 64.3009C53.7109 59.5794 57.5384 55.7519 62.2599 55.7519C66.9814 55.7519 70.8089 59.5794 70.8089 64.3009Z" stroke="#71AC17" stroke-width="8.95181" stroke-miterlimit="10"/>
</g>
</svg>
